<?xml version="1.0" encoding="utf-8"?>
<!-- Generator: Adobe Illustrator 16.0.0, SVG Export Plug-In . SVG Version: 6.00 Build 0)  -->
<!DOCTYPE svg PUBLIC "-//W3C//DTD SVG 1.1//EN" "http://www.w3.org/Graphics/SVG/1.1/DTD/svg11.dtd">
<svg version="1.1" id="Logo_xA0_Image_1_" xmlns="http://www.w3.org/2000/svg" xmlns:xlink="http://www.w3.org/1999/xlink" x="0px"
	 y="0px" width="1463.76px" height="1675.92px" viewBox="0 0 1463.76 1675.92" enable-background="new 0 0 1463.76 1675.92"
	 xml:space="preserve">
<g>
	<defs>
		<rect id="SVGID_1_" width="1463.76" height="1675.92"/>
	</defs>
	<clipPath id="SVGID_2_">
		<use xlink:href="#SVGID_1_"  overflow="visible"/>
	</clipPath>
	<g clip-path="url(#SVGID_2_)">
		<path fill-rule="evenodd" clip-rule="evenodd" fill="#7FC241" d="M1191.467,627.179c-2.707,5.236-5.271,10.551-8.147,15.692
			c-8.419,15.045-16.959,30.022-25.467,45.018c-0.467,0.824-1.065,1.572-1.604,2.356c-5.778,7.625-10.398,16.03-16.174,23.674
			c-12.928,17.11-26.486,33.672-41.334,49.16c-24.295,25.342-50.42,48.56-79.104,68.882
			c-31.976,22.654-66.001,41.579-102.047,56.902c-42.491,18.064-86.672,30.113-132.353,36.549
			c-15.487,2.182-31.083,3.482-46.731,4.431c-13.282,0.804-26.535,0.86-39.779,0.613c-25.43-0.475-50.688-3.157-75.75-7.574
			c-1.429-0.252-2.852-0.482-3.869-1.667c-1.401-2.779,0.7-4.534,2.031-6.389c10.441-14.542,20.595-29.284,30.563-44.152
			c30.538-45.551,59.321-92.195,86.873-139.606c0.962-1.655,1.851-3.366,3.256-4.725c0.388-0.309,0.812-0.551,1.265-0.746
			c60.918-22.078,116.229-53.882,165.518-95.955c36.043-30.767,67.725-65.526,94.53-104.699
			c13.661-19.963,26.157-40.618,36.947-62.226c15.172-30.383,27.493-61.921,36.625-94.691c8.437-30.273,13.942-61.073,17.253-92.283
			c2.736-25.801,2.351-51.713,1.832-77.585c-0.14-6.955-0.19-14.054-1.468-21.001c-0.375-2.043-0.486-4.165,1.016-5.945
			c3.825-1.993,7.626-4.034,11.479-5.971c20.854-10.484,41.72-20.947,62.59-31.401c1.133-0.567,2.337-0.99,3.509-1.481
			c3.862-0.998,4.483,2.401,5.693,4.518c9.298,16.26,17.233,33.194,24.607,50.399c18.313,42.731,30.483,87.19,37.096,133.161
			c2.228,15.487,3.581,31.073,4.462,46.731c0.656,11.675,0.771,23.322,0.672,34.975c-0.308,36.395-4.568,72.353-12.409,107.902
			c-7.256,32.896-17.637,64.772-30.874,95.724C1199.036,613.105,1194.865,619.955,1191.467,627.179z"/>
		<path fill-rule="evenodd" clip-rule="evenodd" fill="#00B0B6" d="M459.91,1398.853c-0.83,0.601-1.808,0.566-2.757,0.639
			c-16.119,1.215-32.265,1.642-48.41,0.933c-38.16-1.676-75.111-9.168-110.45-23.863c-42.357-17.614-78.485-43.975-108.759-78.369
			c-25.942-29.474-45.255-62.974-59.882-99.288c-8.017-19.902-14.107-40.395-18.81-61.311c-0.347-1.543-0.359-3.16-0.526-4.742
			c1.096-11.384,4.747-22.181,7.832-33.08c8.647-30.549,20.174-60.035,34.366-88.408c19.826-39.64,44.043-76.44,72.97-110.08
			c41.803-48.614,90.561-88.767,146.593-119.972c52.014-28.966,107.349-48.683,166.014-58.974
			c22.998-4.034,46.114-6.665,69.48-7.689c11.67-0.511,23.318-0.462,34.975-0.69c7.669-0.15,15.272,1.42,22.97,1.035
			c1.485-0.075,3.339-0.134,3.817,2.022c-1.589,2.354-4.094,2.273-6.467,2.283c-45.372,0.192-87.9,11.87-128.053,32.404
			c-23.731,12.136-45.252,27.532-64.875,45.726c-24.091,22.337-43.323,48.259-58.495,77.19
			c-10.809,20.612-18.433,42.512-23.57,65.255c-0.766,3.389-0.994,6.996-3.011,10.036c-2.698,7.37-4.254,15.056-5.961,22.663
			c-5.782,25.757-10.121,51.746-11.885,78.133c-0.98,14.662-1.965,29.313-1.83,44.02c0.36,38.956,4.586,77.46,13.151,115.492
			c10.392,46.144,26.914,90.002,48.945,131.796c9.1,17.263,19.306,33.887,30.305,50.021
			C458.936,1394.015,461.27,1395.862,459.91,1398.853z"/>
		<path fill-rule="evenodd" clip-rule="evenodd" fill="#009BA9" d="M669.122,717.202c-0.617-0.905-1.548-1.03-2.535-1.031
			c-3.04-0.001-6.08,0.013-9.12-0.02c-2.545-0.027-5.084,0.167-7.591-0.723c-1.151-0.408-2.532-0.215-3.809-0.216
			c-9.92-0.013-19.839-0.01-29.759-0.004c-1.754,0.001-3.482,0.004-5.213,0.561c-1.182,0.379-2.518,0.347-3.788,0.371
			c-2.719,0.052-5.439,0.002-8.159,0.028c-2.228,0.022-4.46-0.172-6.634,0.688c-0.85,0.336-1.891,0.232-2.846,0.251
			c-3.184,0.061-6.393-0.246-9.49,0.873c-0.573,0.207-1.269,0.095-1.908,0.093c-4.953-0.015-9.776,1.042-14.652,1.692
			c-2.679,0.357-5.355,0.669-8.025,1.123c-4.849,0.824-9.768,1.25-14.61,2.104c-6.098,1.076-12.118,2.602-18.227,3.595
			c-8.032,1.307-15.828,3.551-23.705,5.48c-10.528,2.579-20.871,5.788-31.211,9.038c-12.938,4.066-25.632,8.781-38.214,13.794
			c-6.665,2.654-13.073,5.944-19.689,8.729c-6.933,2.919-13.634,6.301-20.301,9.749c-10.488,5.422-20.814,11.131-30.936,17.231
			c-9.702,5.848-19.356,11.758-28.637,18.25c-7.304,5.108-14.611,10.214-21.558,15.821c-5.074,4.095-10.384,7.897-15.49,11.953
			c-2.991,2.376-5.671,5.148-8.7,7.469c-4.436,3.397-8.029,7.747-12.641,10.936c-1.039,0.719-1.875,1.735-2.78,2.64
			c-9.168,9.16-18.514,18.152-27.417,27.563c-4.363,4.611-8.81,9.196-12.691,14.277c-2.412,3.158-5.245,5.992-7.85,9.006
			c-1.77,2.048-3.516,4.118-5.194,6.24c-12.663,16.009-24.429,32.663-35.435,49.844c-4.9,7.65-9.614,15.428-13.887,23.463
			c-4.046,7.608-8.47,15.03-12.229,22.776c-4.734,9.757-9.319,19.589-13.561,29.588c-6.423,15.142-12.165,30.52-17.19,46.168
			c-3.019,9.4-5.817,18.873-8.183,28.466c-1.332,5.403-2.646,10.81-3.938,16.223c-0.159,0.668-0.483,1.158-1.003,1.56
			c-1.547-3.548-1.902-7.396-2.678-11.122c-2.673-12.835-4.586-25.791-6.087-38.819c-2.529-21.952-3.968-43.96-3.35-66.055
			c0.38-13.583,1.171-27.146,2.333-40.699c4.034-47.085,14.242-92.803,30.051-137.285c22.18-62.407,54.597-118.98,97.168-169.728
			c29.449-35.105,62.875-65.927,99.946-92.821c0.763-0.554,1.638-0.952,2.46-1.422c19.333-5.211,39.087-8.131,58.899-10.658
			c22.68-2.893,45.492-4.382,68.334-3.913c49.769,1.022,98.626,8.254,146.369,22.647c42.313,12.755,82.305,30.705,120.316,53.164
			c2.466,1.457,5.063,2.771,6.851,5.142c1.078,2.094,0.408,4.069-0.608,5.907c-12.554,22.699-24.975,45.472-37.692,68.081
			c-0.697,1.239-1.394,2.52-2.671,3.318c-1.25,0.607-2.552,0.591-3.876,0.351c-4.027-0.921-8.106-0.375-12.165-0.427
			C672.208,718.468,670.479,718.507,669.122,717.202z"/>
		<path fill-rule="evenodd" clip-rule="evenodd" fill="#48B963" d="M618.776,920.533c1.327,0.555,2.676,0.915,4.13,1.118
			c5.347,0.744,10.661,1.717,16.001,2.509c3.458,0.514,6.941,0.854,10.411,1.288c4.253,0.533,8.505,1.084,12.757,1.631
			c0.316,0.041,0.631,0.187,0.939,0.168c5.768-0.358,11.408,1.2,17.164,1.103c3.18-0.055,6.373-0.21,9.513,0.74
			c1.181,0.356,2.54,0.156,3.817,0.157c11.195,0.01,22.39,0.02,33.585,0.001c2.865-0.004,5.694-0.048,8.561-0.673
			c2.452-0.535,5.093-0.193,7.648-0.26c2.863-0.074,5.738,0.201,8.554-0.743c1.02-0.343,2.218-0.169,3.335-0.197
			c2.39-0.062,4.802,0.154,7.105-0.77c0.427-0.172,0.945-0.151,1.423-0.156c5.59-0.057,11.056-1.187,16.579-1.823
			c8.221-0.947,16.334-2.45,24.488-3.776c14.156-2.302,28.109-5.499,41.964-9.09c14.509-3.76,28.843-8.199,42.927-13.335
			c10.633-3.878,21.161-8.038,31.574-12.515c13.668-5.875,26.995-12.43,40.134-19.347c10.577-5.568,20.928-11.582,31.026-18.025
			c6.592-4.206,13.123-8.495,19.595-12.879c8.709-5.899,17.105-12.216,25.438-18.643c5.677-4.379,11.071-9.099,16.804-13.408
			c2.656-1.997,5.155-4.285,7.591-6.558c7.585-7.081,15.456-13.864,22.604-21.413c3.848-4.063,7.784-8.054,11.87-11.875
			c5.381-5.033,10.122-10.665,14.933-16.186c7.944-9.117,15.626-18.47,22.947-28.125c6.842-9.022,13.383-18.243,19.835-27.536
			c0.569-0.82,1.189-1.495,2.219-1.67c-0.682,1.833-1.665,3.498-2.852,5.047c-0.112,0.148-0.225,0.296-0.337,0.444
			c-3.514,6.229-6.957,12.499-10.557,18.677c-6.729,11.547-13.554,23.039-20.322,34.563c-0.724,1.23-1.338,2.524-2.004,3.789
			c-0.067,1.997-1.009,3.641-2.012,5.3c-22.747,37.631-45.698,75.133-69.35,112.207c-23.571,36.948-48.332,73.091-73.201,109.164
			c-1.42,2.059-2.541,4.489-5.087,5.56c-4.176,5.837-8.419,11.627-12.518,17.52c-23.723,34.106-48.614,67.343-74.362,99.942
			c-0.387,0.49-0.875,0.9-1.315,1.348c-23.945,11.912-48.772,21.65-74.268,29.646c-28.424,8.915-57.408,15.485-86.947,19.402
			c-19.315,2.561-38.688,4.597-58.232,4.372c-20.756-0.239-41.5,0.288-62.241-1.743c-33.186-3.25-65.804-9.168-97.877-18.28
			c-25.889-7.355-51.014-16.723-75.496-27.855c-2.016-0.917-4.211-1.582-5.787-3.287c-0.525-2.063,1.196-2.075,2.272-2.097
			c13.993-0.268,25.291-7.406,36.479-14.529c12.562-7.999,23.768-17.777,34.941-27.603c11.904-10.468,22.917-21.831,33.901-33.198
			c19.439-20.116,37.16-41.749,54.458-63.721c10.48-13.313,20.729-26.8,30.692-40.505
			C615.402,922.792,616.29,920.678,618.776,920.533z"/>
		<path fill-rule="evenodd" clip-rule="evenodd" fill="#00B091" d="M421.537,1105.075c6.813,3.476,13.867,6.417,20.887,9.437
			c13.348,5.74,26.962,10.784,40.758,15.313c15.602,5.121,31.407,9.603,47.428,13.187c10.703,2.395,21.444,4.693,32.33,6.229
			c6.926,0.978,13.819,2.139,20.781,2.915c6.007,0.671,12.017,1.295,18.02,1.966c4.138,0.462,8.3,0.327,12.38,0.883
			c10.511,1.431,21.054,0.736,31.58,0.877c10.551,0.142,21.131,0.376,31.651-0.241c6.326-0.371,12.752-0.175,19.016-1.561
			c0.616-0.137,1.272-0.104,1.911-0.129c5.414-0.211,10.761-0.996,16.12-1.734c2.833-0.391,5.683-0.663,8.524-1.053
			c10.721-1.47,21.352-3.399,31.97-5.472c11.266-2.198,22.369-5.039,33.449-7.984c14.032-3.73,27.907-7.97,41.475-13.176
			c6.998-2.686,14.058-5.221,21.005-8.031c6.358-2.571,12.615-5.395,18.895-8.158c3.652-1.606,7.256-3.322,10.894-4.964
			c0.638-0.287,1.237-0.075,1.722,0.431c-5.046,6.392-10.016,12.847-15.151,19.169c-29.045,35.76-59.47,70.293-91.841,103.093
			c-28.445,28.822-58.284,56.076-90.53,80.634c-28.041,21.355-57.49,40.445-89.237,55.887
			c-26.694,12.984-54.449,22.897-83.519,28.992c-10.629,2.229-21.341,4.037-32.135,5.306c-5.552,0.652-11.106,1.293-16.664,1.898
			c-1.104,0.12-2.23,0.049-3.345,0.066c-0.076-0.987-0.515-1.793-1.069-2.613c-3.123-4.629-6.209-9.281-9.266-13.953
			c-5.414-8.274-10.506-16.74-15.477-25.291c-6.43-11.061-12.185-22.461-17.823-33.927c-5.423-11.029-10.384-22.273-14.815-33.732
			c-4.256-11.004-8.585-21.991-12.013-33.295c-2.45-8.078-4.846-16.173-7.177-24.286c-1.143-3.977-2.178-7.988-3.097-12.022
			c-2.225-9.763-4.703-19.486-6.403-29.343c-1.212-7.029-2.509-14.066-3.361-21.175c-0.372-3.106-0.369-6.359-1.486-9.401
			c-0.317-0.863-0.211-1.896-0.23-2.852c-0.038-1.916,0.017-3.814-0.689-5.676c-0.326-0.859-0.245-1.889-0.269-2.844
			c-0.061-2.389,0.024-4.754-0.748-7.111c-0.43-1.313-0.188-2.851-0.224-4.288c-0.061-2.387,0.036-4.747-0.709-7.114
			c-0.462-1.47-0.184-3.17-0.251-4.766c-0.189-4.448,0.48-8.938-0.853-13.339c-0.356-1.176-0.096-2.543-0.096-3.822
			c-0.005-9.118-0.021-18.236,0.006-27.354c0.008-2.862-0.187-5.721,0.728-8.551c0.425-1.315,0.143-2.854,0.205-4.291
			c0.225-5.245-0.577-10.54,0.883-15.732c0.293-1.041,0.064-2.228,0.086-3.347c0.046-2.388-0.225-4.804,0.761-7.1
			c0.181-0.421,0.21-0.955,0.158-1.42c-0.491-4.35,0.675-8.586,1.188-12.82c0.665-5.492,1.391-11.01,2.375-16.485
			c0.867-4.828,1.398-9.755,2.327-14.582c2.584-13.43,5.44-26.806,8.975-40.025c0.61-2.284,1.158-4.584,1.756-6.871
			c0.018-0.068,0.279-0.072,0.427-0.105c-0.331,0.548,0.993,0.093,0.383,0.288c1.496,1.677,1.021,3.62,0.598,5.462
			c-5.124,22.329-5.097,45.072-3.878,67.652c1.267,23.468,6.941,46.042,20.83,65.774c3.77,5.354,8.614,9.334,14.398,12.307
			C418.126,1101.864,420.645,1102.46,421.537,1105.075z"/>
		<path fill-rule="evenodd" clip-rule="evenodd" fill="#12627A" d="M1145.281,806.395c0.952,0.75,1.091,1.938,1.492,2.951
			c12.071,30.516,21.264,61.866,27.488,94.099c3.184,16.481,5.603,33.066,7.28,49.755c2.546,25.329,3.025,50.738,1.858,76.147
			c-1.432,31.184-5.802,61.996-12.833,92.418c-0.642,2.778-0.822,5.684-2.181,8.275c-2.05-0.204-1.995,1.768-2.64,2.793
			c-15.872,25.256-33.828,48.932-53.768,71.104c-37.28,41.451-79.656,76.732-127.764,104.992
			c-41.612,24.444-85.679,43.053-132.341,55.552c-29.906,8.01-60.257,13.381-91.056,16.126c-20.221,1.803-40.516,2.677-60.825,2.013
			c-6.215-0.202-12.412-1.08-18.659-0.938c-1.27,0.028-2.58-0.1-3.513-1.194c1.338-1.116,2.647-2.271,4.02-3.344
			c3.528-2.757,7.269-5.274,10.573-8.274c2.852-2.591,6.003-3.906,9.728-4.548c14.665-2.525,29.066-6.199,43.193-10.84
			c15.523-5.1,30.32-11.93,44.686-19.692c35.975-19.441,67.256-44.774,94.418-75.274c1.162-1.305,2.449-2.498,3.679-3.744
			c12.727-10.714,26.754-19.721,39.591-30.304c27.09-22.337,52.008-46.833,74.457-73.842
			c26.702-32.127,49.443-66.881,67.822-104.349c24.9-50.762,41.679-104.122,49.281-160.267c1.18-8.71,2.215-17.429,3.12-26.169
			c0.784-2.709,0.378-5.487,0.472-8.235c0.023-1.042,0.159-2.068,0.39-3.083c1.038-3.555,0.39-7.198,0.558-10.797
			c-0.018-0.515-0.011-1.03,0-1.545c0.015-1.535,0.033-3.072,0.777-4.475c0.28-0.433,0.686-0.642,1.199-0.627
			c1.402,0.41,0.813,2.349,2.345,2.946C1133.885,824.835,1139.826,815.768,1145.281,806.395z"/>
		<path fill-rule="evenodd" clip-rule="evenodd" fill="#ABD037" d="M1095.35,171.209c0.092,2.86,0.01,5.687,0.722,8.551
			c0.563,2.269,0.196,4.767,0.256,7.163c0.066,2.702-0.179,5.406,0.73,8.071c0.395,1.159,0.202,2.533,0.203,3.81
			c0.009,16.63,0.008,33.26,0.003,49.89c0,1.754,0.104,3.519-0.599,5.202c-0.181,0.432-0.269,0.932-0.273,1.402
			c-0.06,5.576-0.284,11.122-0.926,16.687c-0.618,5.355-1.056,10.733-1.822,16.08c-0.405,2.827-0.667,5.679-1.018,8.515
			c-1.602,12.939-4.016,25.718-6.649,38.478c-2.607,12.634-5.659,25.138-9.327,37.504c-2.266,7.638-4.399,15.314-7.061,22.829
			c-2.607,7.362-5.151,14.746-8.137,21.971c-2.313,5.595-4.396,11.283-6.676,16.892c-1.08,2.659-2.307,5.266-3.594,7.833
			c-4.432,8.838-7.762,18.21-12.985,26.666c-1.005,1.626-1.755,3.409-2.635,5.112c-5.276,10.207-10.944,20.186-17.146,29.864
			c-3.525,5.502-6.836,11.146-10.474,16.572c-4.078,6.083-8.356,12.037-12.662,17.964c-3.273,4.508-6.695,8.909-10.105,13.316
			c-3.603,4.655-7.409,9.157-11.011,13.8c-2.939,3.791-6.476,7.007-9.351,10.86c-3.036,4.069-6.661,7.725-10.232,11.361
			c-8.293,8.44-16.712,16.756-25.072,25.13c-4.961,4.967-10.376,9.416-15.72,13.953c-2.548,2.164-5.013,4.422-7.57,6.584
			c-4.623,3.907-9.462,7.53-14.138,11.359c-12.846,10.52-26.541,19.833-40.473,28.816c-7.366,4.75-14.884,9.255-22.465,13.669
			c-12.299,7.161-25.042,13.439-37.781,19.736c-10.585,5.232-21.479,9.771-32.461,14.1c-3.707,1.461-7.408,2.94-11.147,4.315
			c-1.631,0.6-3.23,1.419-5.052,1.348c-0.737-1.515,0.002-2.834,0.683-4.066c9.563-17.312,18.679-34.865,28.296-52.146
			c17.957-33.507,36.179-66.872,54.201-100.343c9.237-17.156,18.364-34.376,27.941-51.349c0.862-1.528,1.552-3.184,3.276-3.999
			c1.74-3.229,3.559-6.417,5.209-9.69c14.806-29.38,29.315-58.906,43.623-88.532c0.415-0.86,0.743-1.762,1.113-2.645
			c-0.075-1.776,1.068-2.942,2.092-4.165c30.043-35.879,54.56-75.26,74.311-117.629c11.164-23.948,20.083-48.754,27.611-74.068
			c0.64-2.152,1.321-4.275,2.596-6.154c1.379-0.781,2.725-1.629,4.142-2.333c24.828-12.33,49.665-24.645,74.504-36.953
			C1093.293,172.047,1094.332,171.65,1095.35,171.209z"/>
		<path fill-rule="evenodd" clip-rule="evenodd" fill="#9CCB3B" d="M1191.467,627.179c-0.188-1.723,0.822-3.046,1.515-4.465
			c3.705-7.601,6.937-15.404,10.267-23.174c6.291-14.678,11.567-29.712,16.483-44.878c4.174-12.874,7.63-25.964,10.768-39.123
			c2.209-9.266,4.182-18.608,5.726-28.004c0.822-4.998,1.738-10.005,2.365-15.055c0.387-3.111,0.307-6.374,1.448-9.397
			c0.111-0.294,0.219-0.63,0.188-0.933c-0.412-4.184,1.241-8.186,1.078-12.351c-0.037-0.945-0.02-1.97,0.304-2.835
			c0.639-1.708,0.61-3.443,0.633-5.2c0.036-2.705,0.122-5.361,0.706-8.068c0.562-2.605,0.197-5.408,0.261-8.124
			c0.063-2.701-0.212-5.404,0.73-8.067c0.407-1.151,0.206-2.532,0.207-3.808c0.011-12.473,0.008-24.945,0.004-37.418
			c-0.001-1.754-0.073-3.47-0.554-5.211c-0.415-1.503-0.314-3.156-0.384-4.746c-0.188-4.287,0.475-8.622-0.878-12.847
			c-0.28-0.875-0.071-1.906-0.092-2.865c-0.058-2.703,0.271-5.439-0.797-8.051c-0.174-0.424-0.142-0.946-0.146-1.423
			c-0.039-5.107-1.334-10.081-1.715-15.122c-0.41-5.416-1.405-10.722-2.283-16.031c-1.371-8.293-2.624-16.622-4.631-24.808
			c-1.703-6.945-3.05-13.979-4.844-20.899c-2.036-7.854-4.347-15.64-6.63-23.428c-1.568-5.351-3.085-10.732-4.988-15.968
			c-4.3-11.83-8.517-23.687-13.471-35.281c-5.899-13.807-12.212-27.404-19.059-40.758c-2.183-4.258-4.431-8.49-6.843-12.622
			c-0.912-1.565-1.631-3.576-3.91-3.863c1.146-1.445,2.859-2.003,4.42-2.777c28.509-14.133,57.025-28.252,85.541-42.371
			c1.136-0.562,2.285-1.095,3.464-1.658c1.284,0.906,1.376,2.223,1.606,3.401c4.472,22.891,8.933,45.784,13.362,68.683
			c5.278,27.292,10.501,54.593,15.794,81.882c3.316,17.094,6.746,34.166,10.072,51.257c3.996,20.543,7.92,41.1,11.904,61.645
			c2.708,13.958,5.488,27.901,8.198,41.859c3.684,18.976,7.316,37.961,10.999,56.938c2.709,13.958,5.479,27.903,8.191,41.86
			c3.354,17.25,6.668,34.507,10.012,51.759c3.313,17.096,6.641,34.188,9.962,51.282c3.078,15.838,6.155,31.676,9.232,47.515
			c3.321,17.094,6.635,34.189,9.967,51.281c1.405,7.212,2.857,14.416,4.264,21.628c0.177,0.906,0.384,1.85-0.177,3.106
			c-6.59-5.284-12.472-11.111-18.657-16.584c-6.109-5.406-12.061-10.991-18.1-16.477c-6.156-5.593-12.335-11.163-18.505-16.741
			c-6.053-5.471-12.107-10.939-18.159-16.41c-6.171-5.579-12.341-11.158-18.509-16.738c-6.051-5.473-12.107-10.938-18.147-16.423
			c-6.158-5.592-12.292-11.211-18.45-16.804c-6.039-5.485-12.09-10.958-18.145-16.425c-6.164-5.565-12.339-11.118-18.428-16.603
			c-1.594,0.608-1.975,1.914-2.588,3.002c-9.255,16.444-18.489,32.9-27.747,49.343
			C1193.45,624.303,1192.864,626.007,1191.467,627.179z"/>
		<path fill-rule="evenodd" clip-rule="evenodd" fill="#134D6E" d="M677.823,1380.487c3.678-0.002,7.356-0.021,11.033,0.003
			c2.386,0.016,4.76-0.133,7.109,0.708c1.149,0.412,2.529,0.227,3.805,0.229c9.914,0.015,19.829,0.013,29.743,0.004
			c1.751-0.001,3.482,0.024,5.215-0.529c1.184-0.378,2.513-0.354,3.78-0.406c5.084-0.206,10.216,0.51,15.241-0.903
			c0.892-0.251,1.909-0.05,2.868-0.071c2.543-0.057,5.099,0.215,7.582-0.749c0.849-0.33,1.895-0.18,2.851-0.203
			c2.228-0.055,4.474,0.176,6.618-0.754c0.557-0.241,1.26-0.193,1.896-0.196c4.634-0.022,9.121-1.275,13.683-1.687
			c5.243-0.473,10.359-1.604,15.547-2.321c6.437-0.892,12.796-2.375,19.159-3.742c6.99-1.502,13.989-3,20.906-4.799
			c7.698-2.004,15.321-4.302,22.954-6.554c5.348-1.577,10.687-3.199,15.975-4.966c11.039-3.686,21.866-7.939,32.669-12.263
			c16.476-6.595,32.392-14.399,48.052-22.685c10.555-5.583,20.893-11.597,30.979-18.045c7.523-4.811,14.998-9.688,22.35-14.745
			c7.602-5.229,15.096-10.614,22.213-16.512c3.915-3.243,8.088-6.175,12.032-9.385c3.086-2.511,5.84-5.449,9.027-7.81
			c4.37-3.235,7.74-7.589,12.289-10.603c1.048-0.694,1.868-1.738,2.773-2.642c8.936-8.93,17.858-17.873,26.805-26.792
			c4.745-4.73,9.086-9.81,13.24-15.058c0.593-0.748,1.284-1.428,1.984-2.081c3.045-2.845,5.384-6.278,7.963-9.51
			c2.876-3.605,5.687-7.265,8.588-10.849c5.513-6.808,10.542-13.964,15.652-21.07c3.912-5.44,7.542-11.059,11.31-16.588
			c2.051-3.011,3.561-6.389,6.066-9.119c0.75,0.655,0.426,1.514,0.606,2.244c-0.144,3.553-1.377,6.881-2.271,10.257
			c-26.877,101.453-78.04,188.686-153.48,261.644c-22.693,21.947-47.35,41.489-73.589,59.036c-0.648,0.435-1.398,0.718-2.102,1.071
			c-19.087,4.75-38.313,8.83-57.826,11.379c-16.95,2.215-33.899,4.369-51.056,4.584c-6.845,0.086-13.693,0.916-20.577,0.847
			c-49.982-0.499-99.103-6.964-147.163-20.964c-23.214-6.763-45.92-14.905-68.062-24.622c-1.165-0.511-2.428-0.865-3.13-2.07
			c0.607-0.855,1.633-0.96,2.49-1.322c29.41-12.403,56.952-28.082,82.632-47.035
			C675.398,1381.998,676.631,1381.271,677.823,1380.487z"/>
		<path fill-rule="evenodd" clip-rule="evenodd" fill="#008A9F" d="M730.562,642.237c-2.65-2.317-5.613-4.156-8.713-5.808
			c-2.108-1.124-4.16-2.359-6.207-3.593c-13.696-8.258-28.087-15.209-42.493-22.072c-10.489-4.997-21.337-9.27-32.156-13.534
			c-8.743-3.447-17.623-6.577-26.546-9.529c-12.544-4.15-25.33-7.482-38.135-10.744c-11.555-2.943-23.293-4.995-34.945-7.455
			c-5.263-1.111-10.747-1.174-16.01-2.285c-3.128-0.661-6.378-0.336-9.402-1.475c-0.295-0.111-0.627-0.229-0.929-0.202
			c-4.339,0.395-8.578-0.708-12.805-1.235c-4.778-0.596-9.619-0.125-14.264-0.957c-5.909-1.058-11.773-0.557-17.652-0.785
			c-1.752-0.068-3.478-0.037-5.206-0.598c-1.178-0.382-2.519-0.343-3.788-0.349c-7.035-0.029-14.07-0.014-21.105-0.014
			c-1.597,0-3.159,0.063-4.731,0.547c-1.189,0.366-2.515,0.371-3.782,0.388c-3.517,0.049-7.035,0.01-10.553,0.026
			c-2.069,0.009-4.16-0.189-6.143,0.691c-0.421,0.187-0.947,0.255-1.41,0.213c-5.29-0.472-10.467,0.751-15.706,1.043
			c-3.325,0.186-6.696,0.594-9.91,1.24c-3.603,0.724-7.37,0.115-10.827,1.573c-3.08-0.357-6.038,0.646-8.963,1.186
			c-12.014,2.213-24.112,4.026-35.975,7.015c-0.9,0.227-1.536,0.139-2.049-0.629c0.678-1.162,1.9-1.682,2.928-2.408
			c58.112-41.042,121.685-69.95,191.053-85.994c17.598-4.07,35.34-7.291,53.259-9.583c14.592-1.866,29.224-3.123,43.915-3.908
			c11.826-0.632,23.647-0.759,35.476-0.587c14.388,0.208,28.735,1.146,43.066,2.508c14.802,1.407,29.518,3.366,44.148,6
			c23.295,4.193,46.192,9.973,68.703,17.283c0.587,0.19,1.115,0.56,1.672,0.845c-14.024,24.146-27.029,48.861-40.759,73.171
			c-11.458,20.287-22.222,40.959-33.988,61.074c-1.925,3.291-3.124,7.015-5.884,9.81
			C732.395,643.884,731.473,643.08,730.562,642.237z"/>
		<path fill-rule="evenodd" clip-rule="evenodd" fill="#003F62" d="M589.13,1431.201c2.109,0.108,4.075,0.82,5.983,1.608
			c6.333,2.615,12.611,5.367,18.947,7.977c3.535,1.456,7.137,2.749,10.721,4.085c4.182,1.56,8.423,2.952,12.61,4.508
			c5.967,2.217,12.083,4.081,18.224,5.775c10.428,2.876,20.897,5.616,31.404,8.19c6.938,1.7,13.958,3.072,20.965,4.475
			c6.533,1.309,13.071,2.641,19.66,3.609c3.13,0.46,6.322,0.595,9.449,1.199c4.208,0.813,8.557,0.61,12.719,1.764
			c0.305,0.085,0.631,0.109,0.949,0.123c3.653,0.156,7.359-0.284,10.913,0.979c7.973-0.082,15.868,1.59,23.868,1.019
			c2.056-0.146,4.117-0.093,6.158,0.61c1.163,0.4,2.523,0.296,3.795,0.3c7.516,0.023,15.032,0.013,22.548,0.011
			c1.755,0,3.478-0.035,5.206-0.594c1.178-0.38,2.52-0.323,3.79-0.34c3.357-0.043,6.716-0.01,10.073-0.027
			c2.229-0.013,4.456,0.143,6.626-0.717c0.848-0.336,1.893-0.203,2.85-0.225c2.704-0.062,5.441,0.244,8.046-0.824
			c0.284-0.116,0.639-0.14,0.947-0.104c4.348,0.521,8.581-0.663,12.811-1.191c3.593-0.449,7.243-0.758,10.845-1.404
			c4.517-0.812,9.088-1.427,13.632-2.18c7.52-1.247,15.033-2.513,22.469-4.201c6.351-1.442,12.685-2.959,19.035-4.403
			c0.958-0.218,1.924-0.099,2.572,0.825c-1.148,0.848-2.257,1.759-3.452,2.535c-44.732,29.039-92.77,50.646-144.399,64.166
			c-18.572,4.863-37.356,8.635-56.379,11.275c-23.973,3.329-48.046,4.813-72.242,4.512c-3.994-0.05-8.008,0.05-11.985,0.4
			c-10.872,0.96-21.74,0.654-32.608,0.146c-7.349-0.343-14.693-0.807-22.032-1.321c-13.246-0.93-26.408-2.585-39.53-4.617
			c-18.497-2.865-36.772-6.733-54.857-11.558c-56.251-15.005-108.544-38.759-157.055-70.896c-3.464-2.295-6.856-4.7-10.281-7.055
			c-0.191-0.905,0.041-1.393,1.074-1.088c9.472,2.241,18.925,4.56,28.511,6.296c10.215,1.849,20.476,3.343,30.796,4.5
			c12.082,1.356,24.202,1.955,36.342,2.247c12.467,0.299,24.911-0.248,37.349-1.162c21.071-1.548,41.845-4.906,62.382-9.816
			c19.125-4.572,37.792-10.572,56.051-17.861C586.101,1432.163,587.628,1431.714,589.13,1431.201z"/>
		<path fill-rule="evenodd" clip-rule="evenodd" fill="#C9DA2B" d="M1013.655,211.824c0.156,1.3-0.216,2.49-0.559,3.74
			c-2.706,9.847-6.186,19.443-9.388,29.127c-3.855,11.657-8.493,23.011-13.224,34.341c-6.347,15.201-13.958,29.778-21.438,44.416
			c-2.891,5.656-6.3,11.083-9.437,16.621c-4.484,7.918-9.525,15.473-14.329,23.175c-4.374,7.016-9.377,13.646-14.226,20.356
			c-3.26,4.513-6.722,8.88-10.115,13.296c-3.682,4.792-7.297,9.637-11.412,14.078c-0.858,0.927-1.657,1.909-2.483,2.865
			c-5.175-0.988-10.344-2.008-15.525-2.958c-15.237-2.792-30.476-5.576-45.721-8.326c-14.931-2.693-29.873-5.322-44.804-8.014
			c-16.974-3.06-33.938-6.172-50.912-9.236c-14.931-2.695-29.868-5.351-44.8-8.034c-5.337-0.959-10.669-1.949-16.286-2.978
			c1.07-1.698,2.689-2.054,4.024-2.723c26.729-13.389,53.472-26.746,80.218-40.097c44.053-21.991,88.109-43.971,132.163-65.959
			c22.17-11.066,44.331-22.151,66.506-33.207c12.447-6.205,24.912-12.374,37.378-18.542
			C1010.714,213.061,1012.197,212.469,1013.655,211.824z"/>
		<path fill-rule="evenodd" clip-rule="evenodd" fill="#008A9F" d="M1123.214,860.186c-0.083,3.341-0.167,6.642-0.702,9.993
			c-0.546,3.422-0.696,6.952-1.222,10.414c-0.548,3.609-1.083,7.221-1.631,10.83c-0.404,2.671-0.657,5.354-1.133,8.026
			c-1.251,7.041-2.367,14.105-3.961,21.08c-1.877,8.221-3.711,16.453-5.755,24.632c-1.505,6.025-3.192,12.012-5.023,17.945
			c-2.729,8.839-5.504,17.668-8.535,26.406c-3.397,9.792-7.159,19.455-11.353,28.943c-3.416,7.733-6.668,15.544-10.266,23.191
			c-2.649,5.629-5.195,11.332-8.58,16.597c-0.861,1.338-1.479,2.832-2.221,4.248c-5.114,9.755-10.532,19.332-16.461,28.62
			c-3.003,4.704-5.804,9.539-8.861,14.206c-2.97,4.533-6.065,8.989-9.258,13.369c-5.066,6.951-10.225,13.836-15.414,20.696
			c-2.111,2.792-4.406,5.444-6.614,8.162c-2.408,2.965-4.809,5.936-7.221,8.897c-2.214,2.719-4.579,5.337-6.93,7.906
			c-5.274,5.767-10.272,11.795-15.95,17.208c-6.597,6.289-12.835,12.956-19.427,19.251c-4.488,4.285-9.315,8.217-13.994,12.302
			c-2.4,2.096-4.811,4.198-7.18,6.31c-6.675,5.948-13.732,11.396-20.868,16.741c-7.904,5.921-15.994,11.593-23.989,17.393
			c-0.786,0.57-1.533,1.154-2.547,1.216c1.671-2.122,3.301-4.28,5.02-6.364c35.701-43.282,59.89-92.229,72.296-146.967
			c0.882-3.891,1.543-7.832,2.347-11.741c0.156-0.763,0.501-1.487,0.759-2.23c4.983-4.817,7.867-11.095,11.474-16.835
			c25.319-40.298,50.695-80.56,75.979-120.879c20.534-32.742,41.176-65.417,61.665-98.188c1.017-1.626,1.991-3.288,3.248-4.738
			c0.938-1.081,1.945-2.311,3.574-0.931c0.143,0.949,0.364,1.906-0.304,2.765c-0.01,0.954-0.019,1.908-0.027,2.862
			C1122.867,854.306,1124.434,857.396,1123.214,860.186z"/>
		<path fill-rule="evenodd" clip-rule="evenodd" fill="#006272" d="M973.561,1014.761c-0.307-1.606-0.438-3.218-0.123-4.841
			c8.86-15.188,18.483-29.904,27.833-44.787c21.942-34.925,43.817-69.891,65.828-104.771c17.829-28.257,35.478-56.627,53.423-84.81
			c0.886-1.392,1.491-3.379,3.873-2.783c0.491,0.562,0.735,1.23,0.861,1.953c0.239,1.888,0.021,3.831,0.68,5.671
			c0.229,0.951,0.347,1.916,0.344,2.895c-0.013,0.987-0.181,1.937-0.715,2.79c-2.393,1.411-3.997,3.48-5.478,5.832
			c-32.246,51.242-64.373,102.56-96.623,153.799c-14.721,23.389-29.456,46.77-44.126,70.19c-1.136,1.813-1.768,4.81-5.151,3.699
			C973.53,1018.043,974.409,1016.291,973.561,1014.761z"/>
		<path fill-rule="evenodd" clip-rule="evenodd" fill="#008094" d="M1125.146,831.377c-0.015,1.596-0.03,3.192-0.046,4.788
			c-5.872,5.436-8.894,12.826-13.063,19.397c-9.585,15.104-19.103,30.254-28.577,45.43c-7.952,12.738-15.831,25.525-23.962,38.147
			c-8.307,12.894-16.355,25.949-24.518,38.93c-9.695,15.42-19.518,30.762-29.067,46.274c-10.217,16.599-20.712,33.023-31.175,49.468
			c-0.929,1.459-1.798,3.69-4.378,2.298c0.084-0.627,0.169-1.255,0.254-1.883c1.073-1.892-0.142-4.096,0.82-6.002
			c0.025-2.91-0.094-5.835,0.928-8.638c1.936,1.826,2.304-0.192,2.975-1.258c8.259-13.117,16.542-26.22,24.777-39.353
			c21.99-35.063,44.021-70.102,66.036-105.147c18.021-28.688,36.074-57.356,54.083-86.052c0.848-1.35,1.55-2.815,2.929-3.742
			c1.059-0.712,2.058-0.925,2.764,0.491C1126.583,826.917,1126.808,829.255,1125.146,831.377z"/>
		<path fill-rule="evenodd" clip-rule="evenodd" fill="#005A69" d="M1124.152,772.805c-0.748,0.341-1.372,0.835-1.729,1.584
			c-1.173,2.458-2.816,4.619-4.257,6.911c-6.098,9.703-12.089,19.472-18.15,29.198c-2.104,3.377-4.332,6.678-6.442,10.052
			c-6.5,10.39-12.964,20.803-19.458,31.196c-2.193,3.51-4.589,6.881-6.729,10.437c-5.334,8.863-10.962,17.549-16.459,26.314
			c-6.342,10.113-12.66,20.241-19.008,30.351c-2.031,3.235-4.15,6.414-6.179,9.651c-4.987,7.958-9.937,15.939-14.917,23.901
			c-1.941,3.104-3.943,6.169-5.886,9.271c-5.153,8.229-10.278,16.476-15.438,24.701c-2.115,3.371-4.293,6.702-6.435,10.056
			c-2.229,3.488-4.479,6.961-6.654,10.481c-0.773,1.253-1.621,2.363-2.976,3.01c-0.789-4.121-1.063-8.279-0.921-12.47
			c0.704-0.882,1.303,1.884,2.613-0.338c7.784-13.19,16.216-25.996,24.287-39.004c8.67-13.975,17.676-27.742,26.174-41.822
			c9.574-15.864,19.588-31.456,29.506-47.101c10.178-16.053,20.076-32.279,30.313-48.296c10.916-17.078,21.792-34.191,32.362-51.494
			c1.341-2.195,1.931-6.247,6.313-4.937C1125.876,767.23,1126.114,770.01,1124.152,772.805z"/>
		<path fill-rule="evenodd" clip-rule="evenodd" fill="#008599" d="M970.359,1076.108c1.047,0.018,1.802-0.405,2.339-1.345
			c2.051-3.591,4.875-6.685,6.671-10.447c0.545-1.142,1.181-2.297,2.02-3.226c1.098-1.214,1.837-2.598,2.564-4.02
			c0.509-0.994,0.963-2.029,1.579-2.955c2.817-4.229,6.03-8.238,8.425-12.69c2.046-3.805,4.893-7.079,6.683-11.013
			c1.323-2.908,3.517-5.273,5.106-8.049c2.683-4.682,5.318-9.439,8.74-13.669c0.301-0.372,0.71-0.705,0.874-1.131
			c1.623-4.216,4.547-7.685,6.934-11.41c2.307-3.6,3.979-7.625,6.878-10.861c0.729-0.814,1.164-1.896,1.707-2.869
			c0.621-1.114,1.036-2.396,1.848-3.344c3.333-3.894,5.646-8.479,8.339-12.762c2.271-3.614,4.502-7.331,6.824-10.909
			c3.026-4.663,5.205-9.878,8.97-14.063c0.318-0.354,0.687-0.722,0.847-1.151c1.585-4.236,4.591-7.646,6.917-11.423
			c2.235-3.628,4.042-7.581,6.908-10.839c0.822-0.935,1.216-2.234,1.88-3.321c1.245-2.037,2.408-4.147,3.867-6.023
			c0.99-1.273,1.782-2.625,2.617-3.982c2.576-4.189,4.921-8.528,7.902-12.463c0.192-0.254,0.445-0.488,0.555-0.775
			c1.597-4.229,4.958-7.399,6.826-11.486c0.849-1.856,2.143-3.548,3.441-5.146c0.922-1.135,1.678-2.328,2.306-3.618
			c0.841-1.727,1.658-3.449,3.091-4.807c0.448-0.425,0.726-1.041,1.042-1.593c2.84-4.966,6.071-9.693,9.03-14.572
			c2.392-3.942,5.02-7.771,7.099-11.901c0.861-1.712,2.179-2.196,3.913-2.08c-0.001,0.32-0.001,0.641-0.001,0.961
			c-1.265,2.776,0.314,5.864-0.949,8.641c-1.07,0.043-1.688,0.665-2.239,1.538c-2.808,4.443-5.687,8.842-8.498,13.283
			c-2.301,3.634-4.536,7.309-6.812,10.958c-5.058,8.111-10.109,16.226-15.189,24.322c-2.117,3.373-4.328,6.688-6.449,10.06
			c-5.598,8.899-11.173,17.814-16.753,26.726c-6.341,10.126-12.668,20.26-19.021,30.378c-2.032,3.238-4.157,6.418-6.187,9.658
			c-4.989,7.966-9.924,15.966-14.927,23.923c-4.155,6.608-8.401,13.158-12.56,19.765c-4.412,7.012-8.764,14.062-13.152,21.088
			c-2.024,3.241-4.084,6.462-6.111,9.702c-5.072,8.102-10.106,16.228-15.212,24.309c-3.574,5.656-7.239,11.256-10.876,16.873
			c-0.251,0.388-0.694,0.791-1.122,0.395c-0.303-0.28-0.345-0.841-0.503-1.276c-0.163-0.282-0.125-0.533,0.116-0.753
			c1.104-1.529-0.079-3.455,0.866-5.013C969.523,1079.796,969.43,1077.876,970.359,1076.108z"/>
		<path fill-rule="evenodd" clip-rule="evenodd" fill="#00788B" d="M823.03,501.963c2.946,0.575,5.784,1.458,8.4,2.967
			c-3.063,3.308-5.286,7.128-7.328,11.143c-5.068,9.967-10.79,19.583-16.177,29.38c-7.61,13.841-15.262,27.661-22.98,41.44
			c-9.672,17.267-18.903,34.775-28.785,51.927c-2.546,4.419-4.735,9.05-7.463,13.377c-0.608,0.924-1.434,1.054-2.402,0.652
			c-0.413-0.177-0.807-0.396-1.187-0.639c-0.392-0.222-0.766-0.474-1.137-0.73c-1.465-1.104-2.965-2.179-3.573-4.043
			c0.343-6.43,4.686-11.098,7.561-16.307c19.534-35.385,39.051-70.78,58.65-106.128c3.563-6.428,7.021-12.914,10.624-19.319
			C818.484,503.458,819.67,500.972,823.03,501.963z"/>
		<path fill-rule="evenodd" clip-rule="evenodd" fill="#007A8D" d="M1125.115,823.682c-1.204,0.559-2.056,1.487-2.732,2.601
			c-6.774,11.158-13.759,22.183-20.788,33.184c-7.112,11.132-13.978,22.423-21.092,33.56c-7.111,11.133-13.979,22.421-21.095,33.557
			c-7.113,11.132-13.908,22.465-21.11,33.547c-6.592,10.143-12.851,20.501-19.276,30.751c-5.412,8.631-10.856,17.242-16.281,25.866
			c-7.034,11.184-14.081,22.359-21.082,33.564c-2.193,3.51-4.26,7.099-6.382,10.652c-0.569,0.955-1.172,1.862-2.589,2.06
			c-0.117-1.239-0.222-2.339-0.326-3.438c0.071-4.181-0.06-8.376,0.957-12.484c1.057,1.397,1.739,2.165,3.146-0.022
			c6.485-10.084,12.74-20.311,19.136-30.451c22.766-36.098,45.433-72.257,68.149-108.387c18.122-28.822,36.254-57.638,54.325-86.493
			c1.188-1.897,2.273-3.872,3.747-5.561c1.216-1.395,2.592-2.731,4.149-0.277C1126.459,818.59,1127.095,821.282,1125.115,823.682z"
			/>
		<path fill-rule="evenodd" clip-rule="evenodd" fill="#008196" d="M823.03,501.963c-1.955,0.143-3.2,1.281-4.099,2.915
			c-1.766,3.214-3.553,6.416-5.304,9.638c-4.263,7.849-8.427,15.751-12.783,23.547c-5.211,9.325-10.489,18.609-15.489,28.054
			c-4.549,8.591-9.401,17.022-14.144,25.51c-4.275,7.652-8.618,15.266-12.863,22.935c-4.016,7.255-7.932,14.564-11.914,21.838
			c-1.378,2.516-2.834,4.99-4.229,7.496c-0.707,1.27-1.234,2.602-1.085,4.105c-0.3,0.295-0.659,0.467-1.076,0.519
			c-1.886-0.255-3.199-1.648-4.826-2.422c-0.513-0.322-0.951-0.723-1.304-1.217c-0.213-0.336-0.367-0.701-0.47-1.086
			c-0.004-0.197-0.004-0.396-0.005-0.594c0.226-0.758,0.327-1.583,0.697-2.263c1.292-2.37,3.039-4.504,3.657-7.216
			c3.213-3.833,4.882-8.586,7.587-12.731c2.001-3.067,3.429-6.475,5.326-9.632c2.792-4.646,5.025-9.626,7.775-14.299
			c2.499-4.245,4.395-8.803,7.222-12.89c2.072-2.996,3.523-6.423,5.337-9.618c4.412-7.77,8.506-15.719,12.835-23.536
			c3.862-6.974,7.897-13.852,11.798-20.804c2.265-4.036,4.302-8.202,6.642-12.192c3.301-5.627,5.787-11.698,9.463-17.12
			c0.678-1,1.384-1.718,2.6-1.844c0.279-0.125,0.504-0.061,0.675,0.193c0.66,0.565,1.533,0.499,2.291,0.775
			C819.401,500.194,821.286,500.872,823.03,501.963z"/>
		<path fill-rule="evenodd" clip-rule="evenodd" fill="#004E5A" d="M970.527,984.996c3.283-4.905,6.525-9.839,9.857-14.71
			c7.301-10.674,14.712-21.271,21.961-31.98c9.755-14.412,19.508-28.828,29.067-43.37c13.068-19.878,25.939-39.885,38.37-60.173
			c12.178-19.875,24.491-39.667,36.694-59.527c4.179-6.801,8.199-13.699,12.308-20.543c0.406-0.677,0.925-1.287,1.392-1.927
			c0.913,1.426,1.838,2.846,2.104,4.569c1.106,2.535-0.675,4.324-1.827,6.09c-9.692,14.866-18.778,30.11-28.273,45.099
			c-13.259,20.929-26.34,41.972-39.601,62.898c-15.998,25.246-31.712,50.669-47.807,75.855
			c-9.465,14.812-18.508,29.896-28.018,44.684c-1.041,1.618-1.609,3.994-4.376,3.575c-1.055-2.533-0.745-5.245-1.034-7.879
			c-0.589-0.799,0.101-1.994-0.834-2.685L970.527,984.996z"/>
		<path fill-rule="evenodd" clip-rule="evenodd" fill="#007688" d="M1125.12,815.04c-1.066,0.048-1.688,0.662-2.242,1.534
			c-2.735,4.298-5.555,8.542-8.285,12.843c-2.986,4.703-5.916,9.442-8.855,14.176c-4.453,7.167-8.869,14.356-13.347,21.508
			c-2.535,4.048-5.206,8.011-7.738,12.061c-6.077,9.718-12.098,19.473-18.167,29.195c-2.445,3.917-4.984,7.774-7.441,11.685
			c-6.86,10.917-13.686,21.858-20.557,32.771c-4.071,6.466-8.24,12.872-12.297,19.348c-6.169,9.85-12.255,19.75-18.422,29.6
			c-2.534,4.048-5.238,7.989-7.777,12.034c-4.4,7.013-8.703,14.086-13.103,21.099c-3.808,6.07-7.693,12.091-11.545,18.133
			c-0.269,0.422-0.604,0.737-1.149,0.55c-0.521-0.18-0.652-0.64-0.685-1.124c-0.073-1.115-0.129-2.232-0.19-3.349
			c0.061-6.659,0.129-13.318,0.181-19.979c0.033-4.121,0.042-8.241,0.061-12.362c1.401,1.378,0.617,3.16,0.878,4.749
			c2.242,3.208,1.121,6.833,1.283,10.292c-0.067,2.979-0.239,5.97-0.03,9.658c10.017-15.848,19.656-31.078,29.292-46.311
			c12.047-19.046,23.969-38.171,36.013-57.219c10.851-17.16,21.564-34.406,32.309-51.633c11.843-18.988,23.853-37.873,35.831-56.776
			c3.851-6.075,7.205-12.471,11.625-18.175c1.16-1.498,2.057-3.85,4.807-2.719c0.305,0.432,0.511,0.898,0.64,1.409
			C1126.334,810.45,1127.021,812.948,1125.12,815.04z"/>
		<path fill-rule="evenodd" clip-rule="evenodd" fill="#006F81" d="M747.842,652.799c0.017-0.956-0.062-1.944,0.53-2.775
			c2.314-3.254,4.563-6.541,5.686-10.443c3.235-3.813,4.948-8.534,7.544-12.734c2.165-3.503,3.821-7.32,5.723-10.987
			c0.512-0.988,1.052-1.966,1.651-2.903c1.887-2.947,4.088-5.722,4.943-9.222c0.037-0.152,0.103-0.313,0.202-0.43
			c3.128-3.679,4.598-8.321,7.163-12.343c2.297-3.603,4.078-7.535,6.082-11.325c0.224-0.422,0.377-0.884,0.615-1.297
			c2.455-4.259,4.913-8.515,7.391-12.76c0.319-0.548,0.914-0.974,1.11-1.549c1.707-5.007,5.346-9.015,7.176-13.954
			c0.163-0.44,0.415-0.862,0.691-1.246c4.02-5.572,6.622-11.949,10.121-17.817c2.527-4.239,5.141-8.449,7.319-12.867
			c1.901-3.857,3.967-7.591,6.155-11.283c0.882-1.487,1.927-2.002,3.485-1.932c2.755,0.462,5.305,1.475,7.714,2.866
			c-5.958,3.935-7.942,10.663-11.145,16.411c-19.72,35.404-39.219,70.932-58.929,106.343c-4.034,7.248-8.013,14.53-11.994,21.809
			c-0.836,1.529-1.43,3.232-2.998,4.247c-1.534,0.712-2.676-0.286-3.912-0.888C749.19,654.91,747.46,654.69,747.842,652.799z"/>
		<path fill-rule="evenodd" clip-rule="evenodd" fill="#005A67" d="M772.455,670.966c-4.341,8.155-8.667,16.317-13.024,24.463
			c-5.563,10.401-11.149,20.79-16.727,31.184c-0.001-0.001-0.357-0.037-0.357-0.037l-0.305,0.189
			c-1.48,1.126-2.816,0.654-4.104-0.365c-1.48-1.471-1.426-3.032-0.412-4.773c7.386-12.687,14.008-25.799,21.46-38.451
			c1.941-3.296,3.46-6.831,5.591-10.037c1.604-2.415,1.827-5.069,0.651-7.78c-0.434-2.571,0.835-4.646,2.003-6.734
			c19.706-35.232,39.111-70.63,58.642-105.959c6.716-12.15,13.453-24.288,20.144-36.452c0.848-1.541,1.665-3.12,3.448-3.823
			c0.714-0.223,1.413-0.324,2.024,0.257c1.595,0.124,2.987,0.733,4.211,1.75c-7.539,9.027-11.985,19.894-17.694,29.996
			c-12.711,22.495-25.069,45.188-37.583,67.794c-9.116,16.466-18.244,32.926-27.381,49.38
			C771.274,664.751,770.727,667.711,772.455,670.966z"/>
		<path fill-rule="evenodd" clip-rule="evenodd" fill="#00697A" d="M753.603,656.639c3.167-6.441,6.724-12.667,10.343-18.862
			c2.411-4.128,4.532-8.424,6.852-12.607c4.403-7.941,8.885-15.839,13.272-23.789c1.771-3.209,3.408-6.484,5.268-9.654
			c2.82-4.811,5.235-9.858,7.948-14.734c3.871-6.959,7.903-13.83,11.771-20.79c1.781-3.203,3.461-6.458,5.271-9.651
			c4.403-7.764,8.517-15.692,12.818-23.514c2.302-4.186,4.902-8.212,7.076-12.46c1.13-2.207,2.642-2.985,4.922-2.781
			c1.814,0.139,3.403,0.862,4.875,1.887c-4.114,3.14-5.832,7.947-8.18,12.225c-24.374,44.412-49.083,88.638-73.572,132.985
			c-0.858,1.554-1.458,3.193-2.099,4.823c-1.175,1.94-2.529,0.821-3.854,0.228c-0.325-0.203-0.629-0.445-0.913-0.702
			c-0.272-0.242-0.527-0.511-0.771-0.784c-0.12-0.13-0.234-0.272-0.355-0.404c-0.232-0.27-0.422-0.571-0.583-0.891
			C753.66,656.991,753.631,656.814,753.603,656.639z"/>
		<path fill-rule="evenodd" clip-rule="evenodd" fill="#005461" d="M972.379,995.536c1.879-0.648,2.545-2.495,3.271-3.954
			c0.931-1.87,2.124-3.49,3.249-5.206c3.317-5.056,6.474-10.217,9.679-15.346c1.94-3.104,3.922-6.185,5.765-9.346
			c2.705-4.637,6.065-8.87,8.327-13.785c0.584-1.27,1.758-2.253,2.528-3.452c4.216-6.561,8.525-13.067,12.536-19.753
			c3.087-5.145,6.261-10.223,9.548-15.24c4.012-6.123,8.014-12.264,11.72-18.572c2.719-4.625,5.583-9.147,8.467-13.664
			c4.196-6.574,8.54-13.061,12.522-19.762c2.903-4.885,5.964-9.662,8.984-14.469c4.657-7.411,9.293-14.834,13.947-22.246
			c2.271-3.617,4.57-7.216,6.843-10.831c4.743-7.545,9.371-15.166,14.264-22.613c2.261-3.44,4.334-7.001,6.478-10.497
			c3.732-6.086,7.997-11.83,11.474-18.071c0.222-0.397,0.206-0.927,0.301-1.396c0.754,0.428,0.955,1.13,0.957,1.932
			c0.551,1.635,1.346,3.272-0.033,4.894c-3.018,2.5-4.502,6.088-6.57,9.261c-2.592,3.976-4.895,8.127-7.45,12.131
			c-2.643,4.14-5.509,8.127-8.117,12.288c-2.956,4.716-5.416,9.738-8.797,14.194c-0.461,0.606-0.583,1.461-0.909,2.179
			c-0.395,0.871-0.648,1.92-1.298,2.543c-2.799,2.683-4.311,6.234-6.432,9.36c-3.934,5.794-7.604,11.771-11.291,17.729
			c-2.416,3.904-4.864,7.791-7.032,11.849c-0.816,1.528-2.107,2.796-3.018,4.283c-4.057,6.638-8.632,12.958-12.501,19.692
			c-1.97,3.428-4.2,6.702-6.029,10.235c-1.876,3.624-4.572,6.815-6.787,10.275c-3.605,5.633-7.121,11.323-10.609,17.031
			c-2.135,3.492-4.191,7.063-6.474,10.492c-2.715,4.078-5.527,8.111-8.136,12.272c-2.956,4.716-5.399,9.748-8.804,14.19
			c-0.461,0.603-0.562,1.471-0.887,2.189c-0.396,0.871-0.643,1.974-1.32,2.523c-2.821,2.286-3.828,5.787-5.939,8.558
			c-3.176,4.167-5.951,8.675-8.542,13.239c-1.484,2.615-2.815,5.235-4.735,7.62c-1.769,2.196-2.543,5.097-4.551,7.266
			c-1.118,1.207-0.853,3.471-2.886,4.146c-0.522-0.749-1.048-1.503-1.573-2.257C972.224,996.83,972.15,996.194,972.379,995.536z"/>
		<path fill-rule="evenodd" clip-rule="evenodd" fill="#01535F" d="M772.455,670.966c-4.551-4.011-3.767-3.286-1.405-7.862
			c2.925-5.667,6.194-11.155,9.275-16.742c2.236-4.053,4.374-8.16,6.62-12.207c2.476-4.46,5.036-8.874,7.536-13.322
			c0.705-1.253,1.293-2.572,1.991-3.83c2.864-5.158,5.774-10.292,8.623-15.46c1.771-3.213,3.457-6.469,5.274-9.663
			c4.421-7.765,8.51-15.718,12.839-23.537c3.862-6.975,7.898-13.852,11.795-20.808c2.341-4.177,4.535-8.436,6.841-12.632
			c3.226-5.872,6.497-11.719,9.743-17.58c0.906-1.636,2.184-2.735,4.112-2.927c0.468,0.103,0.935,0.207,1.401,0.31
			c-5.124,9.573-10.216,19.163-15.375,28.717c-9.938,18.408-19.913,36.795-29.873,55.191c-12.621,23.311-25.24,46.623-37.871,69.929
			C773.529,669.382,772.967,670.16,772.455,670.966z"/>
		<path fill-rule="evenodd" clip-rule="evenodd" fill="#006373" d="M759.355,660.482c-0.164-1.973,0.31-3.763,1.332-5.473
			c2.203-3.687,4.386-7.389,6.464-11.146c4.009-7.247,7.9-14.559,11.914-21.802c4.242-7.657,8.598-15.251,12.854-22.901
			c2.322-4.176,4.499-8.433,6.819-12.61c2.396-4.312,4.922-8.551,7.323-12.859c2.326-4.174,4.532-8.415,6.852-12.593
			c4.479-8.073,9.019-16.112,13.496-24.185c2.241-4.04,4.404-8.122,6.598-12.188c2.27-4.205,4.621-8.37,6.761-12.641
			c0.948-1.891,2.37-2.424,4.252-2.4c1.042-0.028,1.97,0.236,2.684,1.048c-2.148,6.398-5.963,11.952-9.211,17.768
			c-14.885,26.659-29.64,53.388-44.305,80.168c-8.676,15.844-17.818,31.43-26.301,47.384c-1.206,2.267-2.071,4.666-3.267,6.922
			c-1.91,1.304-3.052-0.179-4.324-1.192C759.048,661.338,759.069,660.904,759.355,660.482z"/>
		<path fill-rule="evenodd" clip-rule="evenodd" fill="#005F6E" d="M763.197,663.362c-0.23-2.165,0.478-4.074,1.52-5.926
			c1.788-3.18,3.512-6.396,5.266-9.595c3.758-6.854,7.467-13.735,11.292-20.551c3.431-6.115,7.052-12.124,10.461-18.251
			c1.229-2.211,2.158-4.582,3.414-6.805c5.1-9.025,9.941-18.197,15.143-27.162c4.077-7.028,7.79-14.24,11.597-21.408
			c1.646-3.098,3.409-6.134,5.143-9.185c2.362-4.157,4.752-8.298,7.122-12.451c2.449-4.291,5.026-8.517,7.283-12.907
			c1.524-2.965,2.793-6.041,5.267-8.391l0.012,0.004c0.58,0.616,1.479,0.439,2.138,0.862c0.309-0.121,0.558-0.044,0.746,0.229
			c0.338,0.178,0.452,0.358,0.345,0.544c-0.109,0.187-0.219,0.281-0.331,0.281c-1.053,1.782-2.13,3.55-3.154,5.349
			c-2.682,4.711-5.354,9.429-8.004,14.158c-1.872,3.34-3.723,6.693-5.551,10.058c-4.267,7.852-8.487,15.73-12.778,23.569
			c-5.132,9.375-10.307,18.728-15.482,28.079c-4.788,8.653-9.612,17.287-14.401,25.938c-3.478,6.28-6.889,12.597-10.396,18.86
			c-3.896,6.955-7.897,13.851-11.786,20.811c-1.001,1.792-2.204,3.571-1.981,5.806c-0.449,0.458-0.923,0.265-1.4,0.057
			c-0.298-0.172-0.568-0.381-0.815-0.623c-0.233-0.252-0.426-0.536-0.579-0.845C763.251,663.701,763.225,663.532,763.197,663.362z"
			/>
		<path fill-rule="evenodd" clip-rule="evenodd" fill="#115D74" d="M1145.281,806.395c0.131,1.964-0.474,3.583-1.583,5.295
			c-5.07,7.833-9.928,15.803-14.874,23.716c-0.247,0.395-0.595,0.732-0.923,1.07c-0.398,0.411-1.519,0.146-1.562-0.398
			c-0.126-1.572-0.182-3.149-0.265-4.725c-0.969-2.197-0.239-4.51-0.459-6.754c5.038-8.725,9.846-17.608,16.827-25.03
			C1143.898,801.632,1144.702,803.967,1145.281,806.395z"/>
		<path fill-rule="evenodd" clip-rule="evenodd" fill="#10586D" d="M1142.443,799.568c-0.094,0.465-0.041,1.045-0.304,1.377
			c-5.009,6.343-8.847,13.458-13.322,20.151c-0.717,1.073-1.526,2.02-2.721,2.576c-1.045-4.976-0.213-10.011-0.483-15.002
			c-0.002-0.509,0.001-1.028,0.006-1.539c3.933-6.185,8.233-12.135,12.136-18.348
			C1139.753,792.189,1141.405,795.745,1142.443,799.568z"/>
		<path fill-rule="evenodd" clip-rule="evenodd" fill="#0F5165" d="M1137.755,788.784c0.219,2.593-1.559,4.384-2.745,6.327
			c-2.505,4.103-4.626,8.562-8.909,11.279c-1.896-4.093-2.529-16.892-0.995-20.147c0.011-0.96,0.022-1.921,0.033-2.882
			c2.27,1.807,3.988,1.88,5.14-1.284c0.512-1.408,1.114-2.958,2.628-3.76C1134.963,781.603,1136.633,785.066,1137.755,788.784z"/>
		<path fill-rule="evenodd" clip-rule="evenodd" fill="#0E495B" d="M1132.906,778.317c-0.624,3.391-2.702,6.036-4.558,8.785
			c-0.223,0.331-0.778,0.593-1.19,0.608c-0.827,0.03-0.951-0.706-1.026-1.327c-0.131-1.08,0.105-2.266-0.993-3.023
			c-0.012-0.961-0.023-1.921-0.035-2.882c-1.166-1.782,0.294-3.992-0.939-5.764c-0.004-0.637-0.008-1.274-0.012-1.91
			c-0.202-2.894,0.632-5.902-0.948-8.645c0.011-1.631,0.021-3.263,0.033-4.894C1126.97,765.357,1130.295,771.656,1132.906,778.317z"
			/>
		<path fill-rule="evenodd" clip-rule="evenodd" fill="#008599" d="M971.434,1068.224c0.024,1.346,0.061,2.691,0.07,4.038
			c0.006,0.782-0.271,1.456-0.891,1.964C970.525,1072.176,970.469,1070.13,971.434,1068.224z"/>
		<path fill-rule="evenodd" clip-rule="evenodd" fill="#008A9F" d="M969.522,1081.701c-0.121,1.7,0.718,3.565-0.866,5.013
			C968.571,1084.979,968.574,1083.259,969.522,1081.701z"/>
		<path fill-rule="evenodd" clip-rule="evenodd" fill="#648B9F" d="M333.197,1448.548c-0.358,0.363-0.716,0.726-1.075,1.088
			c-0.972-0.144-2.272-0.917-1.988-1.479c0.608-1.2,1.803-0.406,2.729,0.072C332.995,1448.297,333.087,1448.44,333.197,1448.548z"/>
		<path fill-rule="evenodd" clip-rule="evenodd" fill="#48B963" d="M970.511,984.973c1.233,0.602,1.127,1.618,0.834,2.688
			C970.7,986.876,970.525,985.949,970.511,984.973z"/>
		<path fill-rule="evenodd" clip-rule="evenodd" fill="#008A9F" d="M817.344,500.023c-0.89,0.115-1.732,0.089-2.291-0.775
			C815.935,499.159,816.737,499.3,817.344,500.023z"/>
		<path fill-rule="evenodd" clip-rule="evenodd" fill="#006373" d="M848.853,511.598c-0.856,0.07-1.648-0.022-2.138-0.862
			C847.567,510.676,848.322,510.857,848.853,511.598z"/>
		<path fill-rule="evenodd" clip-rule="evenodd" fill="#006373" d="M849.612,512.652c-0.012-0.275-0.016-0.55-0.014-0.825
			c0.793-0.101,1.414,0.194,1.891,0.821C850.864,512.649,850.238,512.65,849.612,512.652z"/>
		<path fill-rule="evenodd" clip-rule="evenodd" fill="#7FC241" d="M1153.06,695.736c0.041-0.208,0.155-0.358,0.34-0.447
			c-0.003,0.003-0.027,0.327-0.027,0.327L1153.06,695.736z"/>
		<path fill-rule="evenodd" clip-rule="evenodd" fill="#0095A2" d="M698.868,718.993c-2.646,0.116-5.286,0.163-7.856-0.64
			c-0.326,0.068-0.63,0.013-0.913-0.166l0,0.032c0.246-0.753,0.375-1.572,0.756-2.25c3.814-6.787,7.678-13.545,11.508-20.323
			c0.705-1.248,1.283-2.566,1.979-3.819c2.855-5.14,5.738-10.264,8.6-15.401c1.703-3.055,3.208-6.205,5.035-9.208
			c2.724-4.478,5.009-9.222,7.512-13.836c0.832-1.534,1.818-2.985,2.631-4.529c1.102-2.092,2.625-4.045,2.442-6.618
			c1.084-0.051,1.943,0.567,2.877,0.962c0.298,0.343,0.617,0.663,0.962,0.958c0.32,0.32,0.641,0.64,0.961,0.96
			c1.36,2.098-0.211,3.616-1.087,5.226c-11.359,20.878-23.16,41.512-34.478,62.413C698.643,714.889,698.301,716.782,698.868,718.993
			z"/>
		<path fill-rule="evenodd" clip-rule="evenodd" fill="#00B0B6" d="M686.347,717.937c-4.259-0.064-8.542,0.277-12.751-0.713
			c3.398-0.034,6.798-0.07,10.199-0.102C684.733,717.112,685.656,717.166,686.347,717.937z"/>
		<path fill-rule="evenodd" clip-rule="evenodd" fill="#007082" d="M1126.052,807.369c0.015,5.435,0.03,10.869,0.045,16.304
			c-0.007,2.56-0.014,5.12-0.021,7.68c-0.31,0.006-0.62,0.013-0.93,0.024c-0.01-2.565-0.021-5.129-0.03-7.694
			c0.001-2.881,0.003-5.762,0.005-8.642c0-2.561,0-5.12,0-7.68C1125.435,806.921,1125.745,806.924,1126.052,807.369z"/>
		<path fill-rule="evenodd" clip-rule="evenodd" fill="#008094" d="M1124.15,845.767c0.005-2.037,0.014-4.075,0.013-6.112
			c0-0.962,0.092-1.883,0.938-2.528c0,2.993-0.001,5.985,0.002,8.979c0.001,0.966-0.105,1.89-0.927,2.557
			C1124.168,847.696,1124.159,846.731,1124.15,845.767z"/>
		<path fill-rule="evenodd" clip-rule="evenodd" fill="#008599" d="M1123.214,860.186c-0.003-2.044-0.003-4.087-0.01-6.131
			c-0.003-0.965,0.093-1.889,0.945-2.531c-0.004,2.039-0.01,4.078-0.01,6.118C1124.14,858.604,1124.032,859.523,1123.214,860.186z"
			/>
		<path fill-rule="evenodd" clip-rule="evenodd" fill="#00697A" d="M1126.052,807.369c-0.311-0.006-0.621-0.009-0.932-0.009
			c0-0.32,0-0.64,0-0.96c-2.074-2.323-0.686-5.237-1.464-8.28c-7.503,11.55-14.574,22.989-21.719,34.375
			c-21.992,35.048-44.039,70.062-66.034,105.108c-18.175,28.957-36.432,57.863-54.529,86.869c-1.186,1.898-2.307,3.844-3.757,5.552
			c-0.798,0.94-1.647,2.132-3.158,0.996c-0.007-3.837-0.015-7.673-0.021-11.51c1.076-0.043,1.682-0.688,2.225-1.558
			c2.109-3.374,4.3-6.697,6.413-10.069c4.481-7.149,8.934-14.316,13.398-21.477s8.923-14.324,13.4-21.477
			c2.026-3.237,4.114-6.438,6.14-9.677c5.064-8.1,10.096-16.22,15.168-24.314c2.114-3.373,4.335-6.679,6.445-10.054
			c6.501-10.392,12.965-20.808,19.461-31.203c2.194-3.511,4.57-6.896,6.731-10.438c6.718-11.006,13.711-21.843,20.56-32.769
			c6.596-10.522,13.122-21.087,19.727-31.604c2.371-3.775,4.96-7.404,7.196-11.277c2.864-4.959,6.009-9.758,9.102-14.582
			c0.679-1.059,1.6-1.979,2.496-2.876c0.703-0.705,1.478-0.155,2.206,0.107c0.12,2.963-0.099,5.909,0.739,8.87
			c0.537,1.901,0.197,4.054,0.228,6.094c0.026,1.728,0.02,3.456,0.027,5.184C1126.085,806.716,1126.068,807.043,1126.052,807.369z"
			/>
		<path fill-rule="evenodd" clip-rule="evenodd" fill="#005A69" d="M1124.164,774.715c0.666,0.514,0.933,1.213,0.936,2.03
			c0.005,1.245,0.003,2.489,0.004,3.734c-0.665-0.515-0.927-1.215-0.93-2.031C1124.169,777.203,1124.167,775.959,1124.164,774.715z"
			/>
		<path fill-rule="evenodd" clip-rule="evenodd" fill="#00818E" d="M715.164,721.077c-2.277-0.006-4.555-0.011-6.688-0.993
			c-1.424-2.036-0.018-3.731,0.865-5.292c9.81-17.356,19.065-35.02,29.021-52.292c2.167-3.761,2.994-8.563,7.554-10.657
			c0.643,0.319,1.284,0.638,1.926,0.957c0.67,1.073,1.868,1.354,2.873,1.926c1.102,1.438,0.338,2.732-0.363,3.982
			c-11.142,19.88-22.091,39.868-33.122,59.81C716.692,719.489,716.233,720.53,715.164,721.077z"/>
		<path fill-rule="evenodd" clip-rule="evenodd" fill="#008795" d="M745.916,651.842c-1.783,2.981-4.32,5.538-5.104,9.081
			c-3.313,4.327-5.349,9.385-8.059,14.056c-2.308,3.978-4.61,7.951-6.443,12.178c-0.19,0.438-0.36,0.899-0.631,1.286
			c-2.192,3.117-3.794,6.587-5.754,9.81c-3.132,5.151-5.471,10.726-8.837,15.743c-1.21,1.804-2.411,3.775-2.612,6.089
			c-0.649-0.063-1.298-0.125-1.947-0.188c-0.407-0.275-0.861-0.355-1.345-0.392c-4.234-0.321-4.512-0.717-2.548-4.326
			c6.172-11.339,12.471-22.61,18.774-33.876c6.219-11.116,11.923-22.523,18.745-33.3c0.321,0,0.643-0.001,0.965-0.002
			c1.278,0.961,2.558,1.922,3.837,2.884C745.259,651.222,745.577,651.542,745.916,651.842L745.916,651.842z"/>
		<path fill-rule="evenodd" clip-rule="evenodd" fill="#00818E" d="M745.917,651.842c-0.319-0.319-0.64-0.639-0.96-0.958
			C745.277,651.203,745.598,651.522,745.917,651.842z"/>
		<path fill-rule="evenodd" clip-rule="evenodd" fill="#008F9C" d="M740.155,648.002c0.166,1.677-0.535,3.089-1.326,4.492
			c-2.803,4.974-5.582,9.961-8.375,14.94c-4.344,7.748-8.691,15.494-13.038,23.239c-1.631,2.905-3.064,5.906-4.792,8.774
			c-3.517,5.838-6.664,11.9-9.952,17.876c-0.492,0.895-0.201,1.513,0.792,1.658c1.071,0.157,2.27-0.156,3.066,0.913
			c-2.614,0.208-5.152-0.223-7.662-0.902c-0.525-0.328-1.02-0.726-1.581-0.967c-0.906-0.39-1.179-0.963-0.771-1.859
			c0.066-0.145,0.126-0.293,0.204-0.432c4.125-7.341,8.258-14.677,12.373-22.023c0.623-1.111,1.151-2.274,1.75-3.398
			c4.038-7.572,8.17-15.09,12.586-22.453c2.043-3.406,3.906-6.924,5.764-10.437c1.709-3.233,3.188-6.584,5.248-9.634
			c0.509-0.754,0.623-1.774,0.92-2.672C736.96,646.079,738.558,647.041,740.155,648.002z"/>
		<path fill-rule="evenodd" clip-rule="evenodd" fill="#008A9F" d="M734.401,644.158c-0.32-0.319-0.641-0.639-0.962-0.958
			C733.761,643.519,734.081,643.838,734.401,644.158z"/>
		<path fill-rule="evenodd" clip-rule="evenodd" fill="#007082" d="M974.459,1031.02c1.087-0.033,1.672-0.705,2.217-1.567
			c2.811-4.444,5.686-8.849,8.499-13.292c2.303-3.635,4.548-7.306,6.823-10.957c5.058-8.117,10.104-16.239,15.184-24.342
			c2.116-3.377,4.339-6.688,6.451-10.065c6.508-10.405,12.948-20.851,19.493-31.231c2.381-3.775,4.872-7.477,7.226-11.275
			c6.212-10.024,12.688-19.884,18.986-29.855c6.468-10.241,12.839-20.544,19.272-30.807c5.419-8.642,10.866-17.266,16.302-25.897
			c5.435-8.632,10.904-17.243,16.293-25.903c3.789-6.089,7.466-12.249,11.202-18.371c0.248-0.406,0.521-0.826,0.877-1.128
			c0.334-0.284,0.788-0.574,1.199-0.588c0.662-0.023,0.604,0.631,0.608,1.063c0.027,3.2,0.022,6.399,0.028,9.599
			c-3.235,2.244-5.028,5.705-7.146,8.824c-2.589,3.813-4.475,8.112-7.146,11.857c-3.433,4.813-5.749,10.287-9.275,15.008
			c-3.244,4.345-6.084,8.95-8.88,13.575c-2.47,4.087-5.198,8.006-7.498,12.212c-2.123,3.884-4.807,7.462-7.219,11.19
			c-2.507,3.877-4.99,7.77-7.472,11.663c-3.161,4.959-5.802,10.235-9.326,14.98c-1.318,1.774-2.083,3.95-3.281,5.826
			c-4.11,6.434-8.379,12.767-12.439,19.23c-3.466,5.519-6.716,11.173-10.086,16.751c-1.07,1.771-2.072,3.613-3.368,5.21
			c-3.533,4.353-6.1,9.316-9.079,14.016c-3.659,5.771-7.05,11.714-10.684,17.502c-2.874,4.578-6.006,8.995-8.9,13.561
			c-2.551,4.024-4.852,8.208-7.413,12.227c-2.392,3.751-4.633,7.592-7.237,11.222c-2.872,4.002-5.303,8.32-7.941,12.49
			c-1.617,2.558-3.254,5.103-4.915,7.63c-0.134,0.203-0.525,0.293-0.81,0.325c-0.361,0.042-0.547-0.219-0.547-0.62
			C974.459,1037.727,974.459,1034.373,974.459,1031.02z"/>
		<path fill-rule="evenodd" clip-rule="evenodd" fill="#007985" d="M715.164,721.077c0.287-2.293,1.581-4.141,2.691-6.067
			c0.635-1.102,1.361-2.154,1.958-3.275c1.631-3.066,2.572-6.509,5.017-9.132c0.21-0.225,0.321-0.551,0.445-0.845
			c2.223-5.266,5.618-9.897,8.16-14.976c2.833-5.658,6.646-10.796,8.826-16.797c0.26-0.715,0.9-1.293,1.362-1.936
			c0.463-0.645,1.026-1.241,1.366-1.945c1.512-3.135,2.818-6.368,5.021-9.137c0.455-0.572,0.48-1.487,0.704-2.244
			c0.963,0.638,1.925,1.276,2.888,1.914l-0.002,0.001c0.287,0.353,0.639,0.64,0.96,0.958l0.002,0.001
			c0.309,0.33,0.628,0.65,0.958,0.958l0.002,0.001c1.339,2.056-0.044,3.704-0.945,5.298c-9.987,17.663-19.664,35.497-29.475,53.256
			c-1.056,1.91-1.892,4.125-4.28,4.929C718.884,722.023,716.934,722.08,715.164,721.077z"/>
		<path fill-rule="evenodd" clip-rule="evenodd" fill="#00646E" d="M738.229,725.686c-1.375,0.174-2.671-0.02-3.826-0.845
			c-2.922-0.588-3.823-1.751-2.171-4.766c9.724-17.737,19.795-35.283,29.319-53.13c0.599-1.121,1.206-2.276,2.604-2.623
			c0.641,0.319,1.281,0.638,1.922,0.958c1.48,1.685,1.98,3.519,0.884,5.614c-0.146,0.279-0.2,0.605-0.326,0.897
			c-1.024,2.354-2.679,4.328-3.954,6.503c-1.184,2.017-1.648,4.533-3.188,6.366c-1.165,1.388-1.982,2.834-2.525,4.528
			c-0.843,2.627-3.071,4.468-4.161,6.915c-1.105,2.482-1.938,5.066-3.919,7.042c-0.715,0.712-0.831,1.694-1.227,2.55
			c-1.266,2.741-2.272,5.631-4.401,7.91c-0.521,0.558-0.885,1.318-1.151,2.048c-0.937,2.568-2.033,5.025-4.031,6.98
			C737.003,723.684,737.779,724.687,738.229,725.686z"/>
		<path fill-rule="evenodd" clip-rule="evenodd" fill="#00727D" d="M720.822,722.043c5.512-9.658,10.938-19.362,16.165-29.181
			c3.729-7.005,7.823-13.813,11.728-20.725c1.797-3.181,3.555-6.385,5.277-9.606c0.67-1.252,1.484-2.471,1.53-3.973
			c1.277,0.641,2.555,1.282,3.833,1.923c0.004,0.317,0.007,0.635,0.009,0.953c1.467,2.259-0.224,4.004-1.125,5.719
			c-7.362,14.005-15.25,27.722-22.927,41.555c-1.862,3.356-3.31,6.954-5.501,10.098c-1.245,1.786-0.147,3.346-0.22,5.001
			c-1.701,0.161-3.292-0.221-4.807-0.975c-1.176-0.947-2.742-0.012-3.947-0.82L720.822,722.043z"/>
		<path fill-rule="evenodd" clip-rule="evenodd" fill="#00727D" d="M755.521,658.558c-0.319-0.319-0.639-0.639-0.958-0.958
			C754.882,657.918,755.201,658.238,755.521,658.558z"/>
		<path fill-rule="evenodd" clip-rule="evenodd" fill="#006F81" d="M754.561,657.598c-0.319-0.319-0.64-0.639-0.96-0.958
			C753.921,656.959,754.241,657.278,754.561,657.598z"/>
		<path fill-rule="evenodd" clip-rule="evenodd" fill="#006C77" d="M729.592,723.808c-0.457-0.754-1.302-0.841-2-1.191
			c-0.452-0.226-0.667-0.712-0.517-1.19c0.188-0.604,0.471-1.187,0.779-1.743c3.154-5.703,6.299-11.411,9.493-17.092
			c2.413-4.294,4.893-8.55,7.341-12.825c1.58-2.759,2.939-5.63,4.544-8.388c3.438-5.91,6.483-12.048,9.655-18.111
			c0.285-0.544,0.324-1.218,0.478-1.832c1.685-0.166,2.496,1.404,3.833,1.927l0.001,0c0.299,0.34,0.619,0.659,0.958,0.959
			l-0.001,0.001c-3.477,7.141-7.337,14.069-11.371,20.91c-2.337,3.963-4.372,8.102-6.606,12.126
			c-2.462,4.436-5.012,8.824-7.489,13.251c-0.854,1.525-1.585,3.118-2.406,4.662c-1.043,1.959-1.844,4.045-3.265,5.809
			c-0.462,0.573-0.936,1.545-0.746,2.118c0.185,0.56,1.212,0.835,1.856,1.256c0.124,0.081,0.186,0.255,0.275,0.386
			C732.703,724.947,731.09,724.645,729.592,723.808z"/>
		<path fill-rule="evenodd" clip-rule="evenodd" fill="#006373" d="M764.156,664.321c-0.319-0.32-0.639-0.64-0.958-0.959
			C763.518,663.682,763.837,664.002,764.156,664.321z"/>
		<path fill-rule="evenodd" clip-rule="evenodd" fill="#007985" d="M720.838,722.013c1.375-0.01,2.856-0.54,3.947,0.82
			C723.396,722.908,722.01,722.977,720.838,722.013z"/>
		<path fill-rule="evenodd" clip-rule="evenodd" fill="#009BA9" d="M690.099,718.188c0.324-0.055,0.628,0,0.913,0.166
			C690.635,718.696,690.341,718.585,690.099,718.188z"/>
	</g>
</g>
</svg>
